<svg xmlns="http://www.w3.org/2000/svg" width="13.902" height="16.025" viewBox="0 0 13.902 16.025">
  <g id="Place" transform="translate(0 -1)">
    <path id="Shape" d="M6.987,16.025A1.167,1.167,0,0,1,6.3,15.8c-.051-.051-1.124-1.019-2.161-1.956l-.007-.006C3.112,12.918,2.149,12.049,2.1,12A6.719,6.719,0,0,1,0,7,6.956,6.956,0,0,1,7,0a6.9,6.9,0,0,1,4.988,2.076A6.743,6.743,0,0,1,13.9,7a6.716,6.716,0,0,1-2.1,5c0,.075-2.268,2.085-3.486,3.164-.386.342-.689.611-.715.636A.865.865,0,0,1,6.987,16.025ZM7,2A4.947,4.947,0,0,0,2,7a4.849,4.849,0,0,0,1.6,3.6l3.4,3,3.4-3v0A4.848,4.848,0,0,0,12,7,4.947,4.947,0,0,0,7,2Z" transform="translate(0 1)" fill="#657786"/>
    <circle id="Oval_3" data-name="Oval 3" cx="2" cy="2" r="2" transform="translate(5 6)" fill="#657786"/>
  </g>
</svg>
